<?xml version="1.0" encoding="UTF-8" standalone="no"?><svg   xmlns:dc="http://purl.org/dc/elements/1.1/"   xmlns:cc="http://creativecommons.org/ns#"   xmlns:rdf="http://www.w3.org/1999/02/22-rdf-syntax-ns#"   xmlns:svg="http://www.w3.org/2000/svg"   xmlns="http://www.w3.org/2000/svg"   xml:space="preserve"   viewBox="0 0 320 512"   height="512"   width="320"   y="0px"   x="0px"   id="Capa_1"   version="1.1"><metadata   id="metadata3795"><rdf:RDF><cc:Work       rdf:about=""><dc:format>image/svg+xml</dc:format><dc:type         rdf:resource="http://purl.org/dc/dcmitype/StillImage" /><dc:title></dc:title></cc:Work></rdf:RDF></metadata><defs   id="defs3793">	</defs><ellipse   ry="104.69975"   rx="113.13708"   cy="155.71405"   cx="159.92598"   id="path4618"   style="fill:#ffffff;fill-opacity:1;stroke:none;stroke-opacity:1" /><path   style="fill:#0083ff;fill-opacity:1;stroke:none;stroke-opacity:1"   d="M 160,0 C 71.641,0 0,71.625 0,160 0,184.75 5.625,208.219 15.672,229.125 16.234,230.313 160,512 160,512 L 302.594,232.625 C 313.719,210.844 320,186.156 320,160 320,71.625 248.375,0 160,0 Z m 0,256 c -53.016,0 -96,-43 -96,-96 0,-53 42.984,-96 96,-96 53,0 96,43 96,96 0,53 -43,96 -96,96 z"   id="path3756" /><g   id="g3760"></g><g   id="g3762"></g><g   id="g3764"></g><g   id="g3766"></g><g   id="g3768"></g><g   id="g3770"></g><g   id="g3772"></g><g   id="g3774"></g><g   id="g3776"></g><g   id="g3778"></g><g   id="g3780"></g><g   id="g3782"></g><g   id="g3784"></g><g   id="g3786"></g><g   id="g3788"></g><path   style="fill:#007fff;fill-opacity:1;stroke:none;stroke-width:0.33161837;stroke-opacity:1"   id="path2"   d="m 123.12212,206.13015 c 0,0 -7.62722,8.38994 -7.62722,13.49688 0,4.24471 3.41567,7.7267 7.62722,7.7267 4.21157,0 7.62723,-3.48199 7.62723,-7.7267 0,-5.10694 -7.62723,-13.49688 -7.62723,-13.49688 z m 25.86624,-10.61179 c 0,0 -7.62722,8.38995 -7.62722,13.49688 0,4.24471 3.44884,7.72671 7.62722,7.72671 4.21155,0 7.62723,-3.482 7.62723,-7.72671 0,-5.10693 -7.62723,-13.49688 -7.62723,-13.49688 z m 25.86624,10.61179 c 0,0 -7.62723,8.38994 -7.62723,13.49688 0,4.24471 3.41568,7.7267 7.62723,7.7267 4.17839,0 7.62722,-3.48199 7.62722,-7.7267 0,-5.10694 -7.62722,-13.49688 -7.62722,-13.49688 z m 25.86624,-10.61179 c 0,0 -7.62724,8.38995 -7.62724,13.49688 0,4.24471 3.44884,7.72671 7.62724,7.72671 4.21155,0 7.62722,-3.482 7.62722,-7.72671 0,-5.10693 -7.62722,-13.49688 -7.62722,-13.49688 z m 6.69867,-68.57867 c -4.21154,-21.42254 -22.98115,-37.539197 -45.49804,-37.539197 -13.16523,0 -25.20298,4.642661 -33.46028,15.055477 11.3745,0.86221 21.91997,5.0406 30.07778,13.19841 6.03546,6.03545 10.28017,13.43054 12.40253,21.48887 h -11.10922 c -5.07377,-14.49173 -18.57062,-24.87139 -35.05205,-24.87139 -1.98973,0 -4.74215,0.23213 -6.83134,0.66324 -17.70843,3.6478 -30.30993,18.37167 -30.30993,36.64384 0,20.59349 15.71872,38.63354 36.21273,38.63354 h 80.48379 c 17.07835,0 31.90168,-15.25445 31.90168,-32.43228 -0.0332,-16.38195 -12.73415,-29.71301 -28.81765,-30.84051 z" /></svg>